# xmcd CD database file
#
# Track frame offsets:
#	150
#	7743
#	48802
#	85733
#	124730
#	134791
#	190980
#	215150
#	239643
#	260012
#
# Disc length: 3485 seconds
#
# Revision: 0
# Processed by: cddbd v1.5.2PL0 Copyright (c) Steve Scherf et al.
# Submitted via: CDex 1.51
#
DISCID=900d9b0a
DTITLE=ORF On Stage 2011-AUG-29 - Great Guitars live at Royal Garden Jazz Club Graz 2008 - CD1
DYEAR=2011
DGENRE=Jazz
TTITLE0=onstage110829 - onstage110829
TTITLE1=onstage110829 - onstage110829
TTITLE2=onstage110829 - onstage110829
TTITLE3=onstage110829 - onstage110829
TTITLE4=onstage110829 - onstage110829
TTITLE5=onstage110829 - onstage110829
TTITLE6=onstage110829 - onstage110829
TTITLE7=onstage110829 - onstage110829
TTITLE8=onstage110829 - onstage110829
TTITLE9=onstage110829 - onstage110829
EXTD=YEAR: 2011
EXTT0=
EXTT1=
EXTT2=
EXTT3=
EXTT4=
EXTT5=
EXTT6=
EXTT7=
EXTT8=
EXTT9=
PLAYORDER=
